<svg width="24" height="24" viewBox="0 0 24 24" fill="none" xmlns="http://www.w3.org/2000/svg">
<g id="devices/Watch">
<path id="Icon" fill-rule="evenodd" clip-rule="evenodd" d="M15.3561 5.51C17.5294 6.84731 18.8685 9.32181 18.8683 12C18.8718 14.6818 17.5323 17.1609 15.3561 18.5V21.42C15.3561 22.4307 14.5887 23.25 13.6421 23.25H10.0457C9.09906 23.25 8.3317 22.4307 8.3317 21.42V18.5C6.14889 17.1656 4.80225 14.6856 4.80225 12C4.80225 9.31442 6.14889 6.83439 8.3317 5.5V2.58C8.3317 1.56932 9.09906 0.75 10.0457 0.75H13.6421C14.5887 0.75 15.3561 1.56932 15.3561 2.58V5.51ZM13.6421 21.75C13.8128 21.75 13.9512 21.6023 13.9512 21.42V19.16C12.5785 19.6136 11.1093 19.6136 9.73658 19.16V21.42C9.73658 21.6023 9.87496 21.75 10.0457 21.75H13.6421ZM10.4765 9.34C10.3492 9.09884 10.3567 8.80245 10.496 8.56897C10.6352 8.33549 10.8836 8.20289 11.1421 8.22402C11.4006 8.24516 11.6272 8.4166 11.7315 8.67L13.1364 11.67C13.2691 11.9572 13.2164 12.3026 13.0053 12.53L11.6004 14C11.4694 14.1416 11.2904 14.2209 11.104 14.22C10.9173 14.2221 10.738 14.1426 10.6076 14C10.4737 13.8607 10.3982 13.6696 10.3982 13.47C10.3982 13.2704 10.4737 13.0793 10.6076 12.94L11.6566 11.82L10.4765 9.34ZM9.73658 4.84C11.1093 4.38636 12.5785 4.38636 13.9512 4.84V2.58C13.9512 2.39775 13.8128 2.25 13.6421 2.25H10.0457C9.87496 2.25 9.73658 2.39775 9.73658 2.58V4.84Z" fill="#F8F7F9"/>
</g>
</svg>
