<svg width="18" height="18" viewBox="0 0 18 18" fill="none" xmlns="http://www.w3.org/2000/svg">
<path id="Icon" fill-rule="evenodd" clip-rule="evenodd" d="M17.7709 8.32006C17.6287 6.02352 16.5996 3.87211 14.9009 2.32006L14.8909 2.26006C14.8152 2.16718 14.7146 2.0978 14.6009 2.06006C12.9999 0.721709 10.9776 -0.00790427 8.89088 6.45923e-05H8.30088C7.18468 0.100288 6.0965 0.405384 5.09088 0.900065H5.00088C1.27731 2.7153 -0.701538 6.85954 0.227668 10.8964C1.15687 14.9334 4.74841 17.7954 8.89088 17.8001H9.48088C11.8378 17.6435 14.0358 16.5565 15.5908 14.7783C17.1457 13.0002 17.93 10.6768 17.7709 8.32006ZM11.0909 8.67006C10.7709 8.05006 10.4409 7.43006 10.0909 6.83006C11.1991 6.21899 12.2413 5.49516 13.2009 4.67006L14.2009 3.79006C15.3465 4.99195 16.0515 6.54635 16.2009 8.20006C14.522 8.02579 12.8253 8.1717 11.2009 8.63006L11.0909 8.67006ZM8.90088 1.52006H8.41088C7.79383 1.56916 7.18558 1.69686 6.60088 1.90006C7.58609 3.05375 8.49152 4.27324 9.31088 5.55006C10.3494 4.98391 11.3277 4.31381 12.2309 3.55006L13.0609 2.83006C11.8398 1.98027 10.3885 1.52326 8.90088 1.52006ZM5.18088 2.52006L5.25088 2.59006C6.23891 3.73799 7.1445 4.95436 7.96088 6.23006C6.40234 6.91146 4.7508 7.35637 3.06088 7.55006L1.60088 7.71006C1.96054 5.53019 3.2729 3.62397 5.18088 2.51006V2.52006ZM1.51088 9.22006V9.38006C1.63288 11.1065 2.35861 12.735 3.56088 13.9801C4.59721 12.3798 6.00348 11.0524 7.66088 10.1101C8.30858 9.7608 8.97642 9.45025 9.66088 9.18006C9.37088 8.61006 9.07088 8.05006 8.75088 7.50006C7.00238 8.29603 5.13966 8.81233 3.23088 9.03006L1.51088 9.22006ZM9.37089 16.2801H8.88089C7.37303 16.2777 5.90271 15.8097 4.67089 14.9401C5.58821 13.4784 6.85229 12.2658 8.35089 11.4101C8.9992 11.0708 9.66704 10.7703 10.3509 10.5101C11.0167 11.981 11.5748 13.4983 12.0209 15.0501L12.1609 15.5301C11.2911 15.966 10.342 16.2211 9.37089 16.2801ZM13.4509 14.7201C13.8127 14.4385 14.1475 14.1238 14.4509 13.7801C15.4637 12.6413 16.0964 11.2152 16.2609 9.70006C14.7528 9.53115 13.2264 9.64648 11.7609 10.0401C12.4334 11.5379 12.9982 13.0818 13.4509 14.6601V14.7201Z" fill="#DADADA"/>
</svg>
